<svg width="16" height="8" viewBox="0 0 16 8" fill="none" xmlns="http://www.w3.org/2000/svg">
<mask id="path-1-inside-1_9_25" fill="white">
<path d="M0.5 0L8 7.5L15.5 0"/>
</mask>
<path d="M1.56066 -1.06066L0.5 -2.12132L-1.62132 0L-0.560659 1.06066L1.56066 -1.06066ZM8 7.5L6.93934 8.56066C7.52513 9.14645 8.47487 9.14645 9.06066 8.56066L8 7.5ZM16.5607 1.06066L17.6213 0L15.5 -2.12132L14.4393 -1.06066L16.5607 1.06066ZM-0.560659 1.06066L6.93934 8.56066L9.06066 6.43934L1.56066 -1.06066L-0.560659 1.06066ZM9.06066 8.56066L16.5607 1.06066L14.4393 -1.06066L6.93934 6.43934L9.06066 8.56066Z" fill="black" mask="url(#path-1-inside-1_9_25)"/>
</svg>
