<svg width="15" height="18" viewBox="0 0 15 18" fill="none" xmlns="http://www.w3.org/2000/svg">
<path d="M14.125 4.49079L14.8718 4.56026C14.9101 4.14804 14.6072 3.78272 14.195 3.74406L14.125 4.49079ZM13.4451 11.7991L14.1919 11.8686L14.1919 11.8686L13.4451 11.7991ZM12.0241 14.0523L12.4007 14.7009L12.0241 14.0523ZM8.02203 16.3758L8.39859 17.0244L8.39859 17.0244L8.02203 16.3758ZM7.10297 16.3758L7.47953 15.7271L7.47953 15.7271L7.10297 16.3758ZM3.10089 14.0523L2.72433 14.7009H2.72433L3.10089 14.0523ZM1.67986 11.7991L0.933089 11.8686L1.67986 11.7991ZM1 4.49079L0.92997 3.74406C0.517785 3.78272 0.214878 4.14804 0.253224 4.56026L1 4.49079ZM4.75 3.41541L4.34416 2.7847L4.75 3.41541ZM6.91333 1.7442L6.4197 1.17956L6.4197 1.17956L6.91333 1.7442ZM8.21167 1.7442L7.71804 2.30885V2.30885L8.21167 1.7442ZM10.375 3.41541L9.96916 4.04611V4.04611L10.375 3.41541ZM13.3782 4.42132L12.6984 11.7296L14.1919 11.8686L14.8718 4.56026L13.3782 4.42132ZM11.6476 13.4037L7.64547 15.7271L8.39859 17.0244L12.4007 14.7009L11.6476 13.4037ZM7.47953 15.7271L3.47745 13.4037L2.72433 14.7009L6.72641 17.0244L7.47953 15.7271ZM2.42664 11.7296L1.74678 4.42132L0.253224 4.56026L0.933089 11.8686L2.42664 11.7296ZM1 4.49079C1.07003 5.23751 1.07015 5.2375 1.07027 5.23749C1.07033 5.23748 1.07046 5.23747 1.07057 5.23746C1.07079 5.23744 1.07105 5.23741 1.07134 5.23739C1.07192 5.23733 1.07266 5.23726 1.07354 5.23718C1.0753 5.23701 1.07765 5.23678 1.08057 5.23649C1.08641 5.23591 1.09455 5.2351 1.10488 5.23403C1.12553 5.23189 1.15495 5.22874 1.19226 5.22448C1.26684 5.21596 1.37318 5.20297 1.50424 5.18472C1.76578 5.1483 2.12874 5.09051 2.53601 5.00465C3.32619 4.83807 4.37678 4.54742 5.15585 4.04611L4.34416 2.7847C3.80668 3.13055 2.98228 3.3776 2.22659 3.53691C1.86092 3.614 1.53324 3.66621 1.29736 3.69906C1.17971 3.71544 1.08565 3.7269 1.02201 3.73417C0.99021 3.7378 0.966062 3.74038 0.950423 3.742C0.942605 3.74281 0.93692 3.74338 0.933474 3.74372C0.931751 3.74389 0.930588 3.744 0.93 3.74406C0.929706 3.74409 0.929555 3.7441 0.929549 3.7441C0.929546 3.7441 0.92958 3.7441 0.92965 3.74409C0.929685 3.74409 0.929765 3.74408 0.929783 3.74408C0.929872 3.74407 0.92997 3.74406 1 4.49079ZM5.15585 4.04611C5.99147 3.50841 6.84807 2.79746 7.40697 2.30885L6.4197 1.17956C5.87745 1.65361 5.08633 2.30713 4.34416 2.7847L5.15585 4.04611ZM7.71804 2.30885C8.27693 2.79746 9.13353 3.50841 9.96916 4.04611L10.7808 2.7847C10.0387 2.30713 9.24755 1.65361 8.70531 1.17956L7.71804 2.30885ZM9.96916 4.04611C10.7482 4.54742 11.7988 4.83807 12.589 5.00465C12.9963 5.09051 13.3592 5.1483 13.6208 5.18472C13.7518 5.20297 13.8582 5.21596 13.9327 5.22448C13.9701 5.22874 13.9995 5.23189 14.0201 5.23403C14.0305 5.2351 14.0386 5.23591 14.0444 5.23649C14.0474 5.23678 14.0497 5.23701 14.0515 5.23718C14.0523 5.23726 14.0531 5.23733 14.0537 5.23739C14.054 5.23741 14.0542 5.23744 14.0544 5.23746C14.0545 5.23747 14.0547 5.23748 14.0547 5.23749C14.0549 5.2375 14.055 5.23751 14.125 4.49079C14.195 3.74406 14.1951 3.74407 14.1952 3.74408C14.1952 3.74408 14.1953 3.74409 14.1954 3.74409C14.1954 3.7441 14.1955 3.7441 14.1955 3.7441C14.1954 3.7441 14.1953 3.74409 14.195 3.74406C14.1944 3.744 14.1933 3.74389 14.1915 3.74372C14.1881 3.74338 14.1824 3.74281 14.1746 3.742C14.1589 3.74038 14.1348 3.7378 14.103 3.73417C14.0394 3.7269 13.9453 3.71544 13.8276 3.69906C13.5918 3.66621 13.2641 3.614 12.8984 3.53691C12.1427 3.3776 11.3183 3.13055 10.7808 2.7847L9.96916 4.04611ZM3.47745 13.4037C2.89089 13.0632 2.4928 12.4408 2.42664 11.7296L0.933089 11.8686C1.04291 13.0491 1.70632 14.1099 2.72433 14.7009L3.47745 13.4037ZM12.6984 11.7296C12.6322 12.4408 12.2341 13.0632 11.6476 13.4037L12.4007 14.7009C13.4187 14.1099 14.0821 13.0491 14.1919 11.8686L12.6984 11.7296ZM7.64548 15.7271C7.59297 15.7576 7.53203 15.7576 7.47953 15.7271L6.72641 17.0244C7.24459 17.3252 7.88041 17.3252 8.39859 17.0244L7.64548 15.7271ZM7.40697 2.30885C7.49672 2.23038 7.62828 2.23038 7.71804 2.30885L8.70531 1.17956C8.05017 0.606813 7.07483 0.606814 6.4197 1.17956L7.40697 2.30885Z" fill="black"/>
</svg>
