<svg width="15" height="8" viewBox="0 0 15 8" fill="none" xmlns="http://www.w3.org/2000/svg">
<mask id="path-1-inside-1_9_124" fill="white">
<path d="M15 7.5L7.5 0L0 7.5"/>
</mask>
<path d="M13.9393 8.56066L15 9.62132L17.1213 7.5L16.0607 6.43934L13.9393 8.56066ZM7.5 0L8.56066 -1.06066C7.97487 -1.64645 7.02513 -1.64645 6.43934 -1.06066L7.5 0ZM-1.06066 6.43934L-2.12132 7.5L0 9.62132L1.06066 8.56066L-1.06066 6.43934ZM16.0607 6.43934L8.56066 -1.06066L6.43934 1.06066L13.9393 8.56066L16.0607 6.43934ZM6.43934 -1.06066L-1.06066 6.43934L1.06066 8.56066L8.56066 1.06066L6.43934 -1.06066Z" fill="black" mask="url(#path-1-inside-1_9_124)"/>
</svg>
